HIERARCHY
ROOT Hips
{
  OFFSET -43.3411 73.6987 0
  CHANNELS 6 Xposition Yposition Zposition Zrotation Xrotation Yrotation
  JOINT Bip01_Pelvis
  {
    OFFSET 0 0 0
    CHANNELS 6 Xposition Yposition Zposition Zrotation Xrotation Yrotation
    JOINT BN_Tail_01
    {
      OFFSET -18.6385 -9.591 -2.032e-005
      CHANNELS 6 Xposition Yposition Zposition Zrotation Xrotation Yrotation
      JOINT BN_Tail_02
      {
        OFFSET 20.9743 0 0
        CHANNELS 6 Xposition Yposition Zposition Zrotation Xrotation Yrotation
        JOINT BN_Tail_03
        {
          OFFSET 20.3015 0 0
          CHANNELS 6 Xposition Yposition Zposition Zrotation Xrotation Yrotation
          JOINT BN_Tail_04
          {
            OFFSET 21.6394 -9.91821e-005 0
            CHANNELS 6 Xposition Yposition Zposition Zrotation Xrotation Yrotation
            End Site
            {
              OFFSET 0 0 0
            }
          }
        }
      }
    }
    JOINT Bip01_Spine
    {
      OFFSET 22.1878 -0.659386 3.048e-005
      CHANNELS 6 Xposition Yposition Zposition Zrotation Xrotation Yrotation
      JOINT Bip01_R_Thigh
      {
        OFFSET -22.1873 0.677109 -17.1024
        CHANNELS 6 Xposition Yposition Zposition Zrotation Xrotation Yrotation
        JOINT Bip01_R_Calf
        {
          OFFSET 34.2647 0 0
          CHANNELS 6 Xposition Yposition Zposition Zrotation Xrotation Yrotation
          JOINT Bip01_R_HorseLink
          {
            OFFSET 20.4429 0 0
            CHANNELS 6 Xposition Yposition Zposition Zrotation Xrotation Yrotation
            JOINT Bip01_R_Foot
            {
              OFFSET 16.5673 0 0
              CHANNELS 6 Xposition Yposition Zposition Zrotation Xrotation Yrotation
              JOINT Bip01_R_Toe0
              {
                OFFSET 9.18784 6.94841 0
                CHANNELS 6 Xposition Yposition Zposition Zrotation Xrotation Yrotation
                JOINT Bip01_R_Toe0Nub
                {
                  OFFSET 1.01907 0 0
                  CHANNELS 6 Xposition Yposition Zposition Zrotation Xrotation Yrotation
                  End Site
                  {
                    OFFSET 0 0 0
                  }
                }
              }
            }
          }
        }
      }
      JOINT Bip01_L_Thigh
      {
        OFFSET -22.1873 0.67701 17.1024
        CHANNELS 6 Xposition Yposition Zposition Zrotation Xrotation Yrotation
        JOINT Bip01_L_Calf
        {
          OFFSET 34.2647 0 0
          CHANNELS 6 Xposition Yposition Zposition Zrotation Xrotation Yrotation
          JOINT Bip01_L_HorseLink
          {
            OFFSET 20.4429 0 0
            CHANNELS 6 Xposition Yposition Zposition Zrotation Xrotation Yrotation
            JOINT Bip01_L_Foot
            {
              OFFSET 16.5673 0 0
              CHANNELS 6 Xposition Yposition Zposition Zrotation Xrotation Yrotation
              JOINT Bip01_L_Toe0
              {
                OFFSET 9.18784 6.9484 1.14441e-005
                CHANNELS 6 Xposition Yposition Zposition Zrotation Xrotation Yrotation
                JOINT Bip01_L_Toe0Nub
                {
                  OFFSET 1.01907 0 0
                  CHANNELS 6 Xposition Yposition Zposition Zrotation Xrotation Yrotation
                  End Site
                  {
                    OFFSET 0 0 0
                  }
                }
              }
            }
          }
        }
      }
      JOINT Bip01_Spine1
      {
        OFFSET 39.3372 -0.0249863 0
        CHANNELS 6 Xposition Yposition Zposition Zrotation Xrotation Yrotation
        JOINT Bip01_Neck
        {
          OFFSET 34.2837 -15.5934 -4.318e-005
          CHANNELS 6 Xposition Yposition Zposition Zrotation Xrotation Yrotation
          JOINT Bip01_R_Clavicle
          {
            OFFSET -17.9452 -11.3131 -6.19287
            CHANNELS 6 Xposition Yposition Zposition Zrotation Xrotation Yrotation
            JOINT Bip01_R_UpperArm
            {
              OFFSET 17.4439 1.52588e-005 -2.28882e-005
              CHANNELS 6 Xposition Yposition Zposition Zrotation Xrotation Yrotation
              JOINT Bip01_R_Forearm
              {
                OFFSET 30.6251 1.14441e-005 0
                CHANNELS 6 Xposition Yposition Zposition Zrotation Xrotation Yrotation
                JOINT Bip01_R_Hand
                {
                  OFFSET 31.2039 0 0
                  CHANNELS 6 Xposition Yposition Zposition Zrotation Xrotation Yrotation
                  JOINT Bip01_R_Finger0
                  {
                    OFFSET 22.1039 0.255862 -0.37902
                    CHANNELS 6 Xposition Yposition Zposition Zrotation Xrotation Yrotation
                    JOINT Bip01_R_Finger0Nub
                    {
                      OFFSET 12.0552 0 0
                      CHANNELS 6 Xposition Yposition Zposition Zrotation Xrotation Yrotation
                      End Site
                      {
                        OFFSET 0 0 0
                      }
                    }
                  }
                }
              }
            }
          }
          JOINT Bip01_L_Clavicle
          {
            OFFSET -17.9452 -11.3132 6.19281
            CHANNELS 6 Xposition Yposition Zposition Zrotation Xrotation Yrotation
            JOINT Bip01_L_UpperArm
            {
              OFFSET 17.444 0 1.14441e-005
              CHANNELS 6 Xposition Yposition Zposition Zrotation Xrotation Yrotation
              JOINT Bip01_L_Forearm
              {
                OFFSET 30.6251 0 0
                CHANNELS 6 Xposition Yposition Zposition Zrotation Xrotation Yrotation
                JOINT Bip01_L_Hand
                {
                  OFFSET 31.204 0 0
                  CHANNELS 6 Xposition Yposition Zposition Zrotation Xrotation Yrotation
                  JOINT Bip01_L_Finger0
                  {
                    OFFSET 22.1039 0.255856 0.379024
                    CHANNELS 6 Xposition Yposition Zposition Zrotation Xrotation Yrotation
                    JOINT Bip01_L_Finger0Nub
                    {
                      OFFSET 12.0552 0 0
                      CHANNELS 6 Xposition Yposition Zposition Zrotation Xrotation Yrotation
                      End Site
                      {
                        OFFSET 0 0 0
                      }
                    }
                  }
                }
              }
            }
          }
          JOINT Bip01_Neck1
          {
            OFFSET 14.9359 -0.0106278 0
            CHANNELS 6 Xposition Yposition Zposition Zrotation Xrotation Yrotation
            JOINT Bip01_Head
            {
              OFFSET 14.3578 0.505501 0
              CHANNELS 6 Xposition Yposition Zposition Zrotation Xrotation Yrotation
              JOINT BN_Ear_L_01
              {
                OFFSET 3.76994 -2.35629 12.3444
                CHANNELS 6 Xposition Yposition Zposition Zrotation Xrotation Yrotation
                End Site
                {
                  OFFSET 0 0 0
                }
              }
              JOINT BN_Ear_R_01
              {
                OFFSET 3.76995 -2.35622 -12.3442
                CHANNELS 6 Xposition Yposition Zposition Zrotation Xrotation Yrotation
                End Site
                {
                  OFFSET 0 0 0
                }
              }
              JOINT BN_Mouth_01
              {
                OFFSET 11.8395 10.8645 1.27e-005
                CHANNELS 6 Xposition Yposition Zposition Zrotation Xrotation Yrotation
                JOINT BN_Tongue_01
                {
                  OFFSET 9.73752 3.21674 1.016e-005
                  CHANNELS 6 Xposition Yposition Zposition Zrotation Xrotation Yrotation
                  JOINT BN_Tongue_02
                  {
                    OFFSET 9.04304 0.053505 0
                    CHANNELS 6 Xposition Yposition Zposition Zrotation Xrotation Yrotation
                    End Site
                    {
                      OFFSET 0 0 0
                    }
                  }
                }
                JOINT BN_Beard_01
                {
                  OFFSET 6.93466 -0.751793 0
                  CHANNELS 6 Xposition Yposition Zposition Zrotation Xrotation Yrotation
                  JOINT BN_Beard_02
                  {
                    OFFSET 13.0965 1.52588e-005 0
                    CHANNELS 6 Xposition Yposition Zposition Zrotation Xrotation Yrotation
                    End Site
                    {
                      OFFSET 0 0 0
                    }
                  }
                }
              }
              JOINT Bip01_HeadNub
              {
                OFFSET 25.6158 0 0
                CHANNELS 6 Xposition Yposition Zposition Zrotation Xrotation Yrotation
                End Site
                {
                  OFFSET 0 0 0
                }
              }
            }
          }
        }
      }
    }
  }
}
MOTION
Frames:	4
Frame Time:	0.0333333
-41.4961 62.0414 3.14522 93.6155 -81.9826 -177.564 -3.8147e-006 2.38419e-007 -7.10543e-015 -94.9206 -8.87355 -82.2814 -18.6385 -9.591 1.77636e-015 -35.4508 0.324423 175.369 20.9743 7.6294e-006 4.76837e-007 24.3849 0.418476 9.27619 20.3015 0 1.77636e-015 8.06484 2.39181 4.36308 21.6394 0 1.77636e-015 7.77503 2.04068 -13.2755 21.6349 -4.06984 2.87218 -0.704212 8.25636 -2.87727 -22.6773 0.894501 -19.2003 -68.0747 -9.39488 173.952 34.2647 -1.42109e-014 0.00122643 -37.2504 7.39938e-006 5.37341e-006 20.4429 -7.62939e-006 0.000873566 61.9174 -7.24514e-007 1.14499e-006 16.5673 0 0 4.18523 5.48905 7.80079 9.18784 6.9484 0 91.3394 1.067e-005 -3.55391e-007 1.01907 -2.38418e-007 7.10543e-015 -4.8036e-008 7.66779e-009 -1.29877e-007 -20.9773 5.80754 14.6073 -120.423 13.0744 -170.338 34.2647 0 -3.8147e-006 -97.8957 5.33924e-006 -2.07679e-005 20.4429 5.72205e-006 7.62939e-006 105.053 2.64173e-006 -7.31286e-006 16.5673 -1.90735e-006 -3.8147e-006 -31.5452 -4.59826 -6.72739 9.18784 6.9484 0 89.9962 -1.30609e-006 1.44527e-006 1.01907 0 0 179.96 -1.00575e-005 -1.46144e-005 39.3396 -0.0248222 -0.00166893 5.3785 3.84119 3.68403 34.2893 -15.5917 0.000302792 31.4265 -1.61327 1.42036 -21.0163 -1.1547 -6.75204 148.837 -39.2627 128.851 17.4439 7.6294e-006 -7.10542e-015 43.9229 21.3581 -102.638 30.6251 -7.6294e-006 -3.55271e-015 -10.5448 -1.80871e-005 -3.26748e-006 31.204 -7.6294e-006 -5.72204e-006 -87.9741 74.2199 47.7882 22.1039 0.255849 -0.379044 -3.32362 9.95714 -44.5779 12.0552 3.81471e-006 5.96045e-007 179.96 -9.5512e-006 -1.24896e-005 -21.3237 -1.50401 5.62489 148.234 38.8542 -98.226 17.4439 7.6294e-006 7.10543e-015 39.3497 -43.5512 85.1157 30.6251 -7.10544e-015 0 -87.85 -1.97948e-006 -9.42193e-006 31.2039 3.8147e-006 3.81469e-006 -158.231 -73.5578 -162.4 22.1039 0.255847 0.379024 -10.7625 6.07328 10.0774 12.0552 0 7.62938e-006 1.50421e-007 3.32775e-007 -6.75324e-007 14.9382 -0.0102158 -8.88178e-016 16.6108 -0.313371 4.51417 14.3577 0.505509 2.38419e-007 20.2424 -3.04966 -4.79147 3.76991 -2.3563 12.3444 -172.201 32.7368 -81.1316 3.76993 -2.35626 -12.3442 5.88479 29.4885 114.375 11.8395 10.8645 -1.19209e-007 -175.055 -3.75638 178.915 9.73751 3.21675 4.76837e-007 -2.85749 9.2571e-008 -3.78542e-008 2.55462 -1.1059 -0.153772 4.77834 -2.94618 -1.72235 6.93463 -0.751786 -4.76837e-007 -4.28042 -4.6351 1.68307 13.0966 0 -1.19209e-007 0.252137 -3.35865 -7.05389 25.6158 0 -1.19209e-007 1.47529e-007 -1.35792e-008 -4.40031e-008 
-41.4197 62.039 3.18385 93.6155 -81.9826 -177.564 -3.8147e-006 2.38419e-007 -1.42109e-014 -94.9305 -8.78244 -82.3224 -18.6385 -9.591 -1.77636e-015 -35.5837 0.324214 175.026 20.9743 7.6294e-006 4.76837e-007 24.2811 0.413612 9.61294 20.3015 1.42109e-014 -1.77636e-015 7.53603 2.3359 4.90021 21.6394 -5.68434e-014 0 6.92512 1.95453 -13.0547 21.6434 -4.0351 2.85693 -0.58185 8.25048 -2.90724 -22.6864 0.908244 -19.1752 -67.9435 -9.47752 174.03 34.2647 4.68958e-013 0.00122643 -36.9636 7.42631e-006 5.33767e-006 20.4429 -7.62939e-006 0.000873566 61.7199 -3.07906e-007 1.36389e-006 16.5673 2.84217e-014 3.55271e-015 4.26623 5.47159 7.7955 9.18784 6.9484 -3.26352e-011 91.3394 1.06686e-005 -3.55122e-007 1.01907 -2.38419e-007 -1.42109e-014 -4.8036e-008 7.66779e-009 -1.29877e-007 -20.9692 5.82206 14.6318 -120.398 12.9911 -170.317 34.2647 -2.84217e-014 -3.8147e-006 -97.8959 4.38787e-006 -2.09028e-005 20.4429 5.72205e-006 7.62939e-006 105.041 2.89518e-006 -7.38824e-006 16.5673 -1.90735e-006 -3.8147e-006 -31.4916 -4.5955 -6.79638 9.18784 6.9484 4.48338e-010 89.9962 -1.30198e-006 1.44157e-006 1.01907 -3.99681e-015 7.10543e-015 179.96 -1.00575e-005 -1.46144e-005 39.3396 -0.0248222 -0.00166893 5.29569 3.83936 3.72557 34.2893 -15.5917 0.000302792 31.3925 -1.63124 1.55311 -20.9996 -1.16572 -6.80192 148.963 -39.3458 128.989 17.4439 7.6294e-006 3.55271e-014 43.9164 21.3206 -102.664 30.6251 -7.6294e-006 -2.4869e-014 -10.4956 -1.79038e-005 -4.21998e-006 31.204 -7.6294e-006 -5.72204e-006 -88.0186 74.217 47.8864 22.1039 0.255849 -0.379044 -3.32362 9.95714 -44.5779 12.0552 3.81471e-006 5.96045e-007 179.96 -9.5512e-006 -1.24897e-005 -21.336 -1.51856 5.57416 148.182 38.7721 -98.0857 17.4439 7.6294e-006 3.19744e-014 39.3176 -43.4344 85.0927 30.6251 -7.10544e-015 2.84217e-014 -87.9547 -1.98217e-006 -9.43269e-006 31.2039 3.8147e-006 3.81469e-006 -158.142 -73.5674 -162.409 22.1039 0.255847 0.379024 -10.7625 6.07328 10.0774 12.0552 -3.55272e-015 7.62938e-006 1.50421e-007 3.32775e-007 -6.75324e-007 14.9382 -0.0102158 -8.37108e-012 16.6755 -0.333415 4.43045 14.3577 0.505509 2.38552e-007 20.4335 -3.05294 -4.76167 3.76991 -2.3563 12.3444 -172.212 32.8296 -81.3088 3.76993 -2.35626 -12.3442 5.83807 29.607 114.283 11.8395 10.8645 -1.14461e-007 -174.945 -3.82601 178.926 9.73751 3.21675 4.78011e-007 -2.85749 9.29647e-008 -3.68123e-008 2.55462 -1.1059 -0.153772 4.77834 -2.94618 -1.72235 6.93463 -0.751786 -4.77112e-007 -4.13629 -4.6667 1.73757 13.0966 1.42109e-014 -1.19209e-007 0.19546 -3.34523 -6.84034 25.6158 0 -1.19209e-007 1.47529e-007 -1.35792e-008 -4.40031e-008 
-41.3429 62.0321 3.22466 93.6155 -81.9826 -177.564 -3.8147e-006 2.38419e-007 -7.10543e-015 -94.9473 -8.68372 -82.3721 -18.6385 -9.591 3.55271e-015 -35.7807 0.324059 174.749 20.9743 7.6294e-006 4.76837e-007 24.1624 0.404143 9.94737 20.3015 0 -1.77636e-015 6.97115 2.27443 5.37589 21.6394 -4.26326e-014 -3.55271e-015 6.09208 1.86692 -12.8395 21.6531 -3.99665 2.8372 -0.452768 8.24388 -2.92011 -22.6909 0.922339 -19.1518 -67.8105 -9.54703 174.107 34.2647 9.09495e-013 0.00122643 -36.6862 7.45223e-006 5.30256e-006 20.4429 -7.62939e-006 0.000873566 61.5263 -7.17235e-007 1.13885e-006 16.5673 0 0 4.34562 5.45449 7.79037 9.18784 6.9484 -5.37526e-011 91.3394 1.06663e-005 -3.54948e-007 1.01907 -2.38419e-007 -7.10543e-015 -4.8036e-008 7.66779e-009 -1.29877e-007 -20.9652 5.8363 14.6545 -120.377 12.9297 -170.304 34.2647 -2.30926e-014 -3.8147e-006 -97.9064 5.3275e-006 -2.07731e-005 20.4429 5.72205e-006 7.62939e-006 105.047 2.64815e-006 -7.32878e-006 16.5673 -1.90735e-006 -3.8147e-006 -31.439 -4.59286 -6.86401 9.18784 6.9484 8.7158e-010 89.9962 -1.2981e-006 1.43808e-006 1.01907 2.73115e-014 1.42109e-014 179.96 -1.00575e-005 -1.46144e-005 39.3396 -0.0248222 -0.00166893 5.19774 3.83466 3.74952 34.2893 -15.5917 0.000302792 31.3626 -1.64506 1.67157 -20.9855 -1.17487 -6.84378 149.069 -39.4196 129.104 17.4439 7.6294e-006 3.55271e-014 43.9079 21.2629 -102.708 30.6251 -7.6294e-006 0 -10.4851 -1.96925e-005 5.45977e-006 31.204 -7.6294e-006 -5.72204e-006 -88.0365 74.2128 47.983 22.1039 0.255849 -0.379044 -3.32362 9.95714 -44.5779 12.0552 3.81471e-006 5.96045e-007 179.96 -9.55122e-006 -1.24897e-005 -21.3462 -1.53063 5.53151 148.142 38.6935 -97.9623 17.4439 7.6294e-006 1.42109e-014 39.2627 -43.3161 85.0319 30.6251 7.10544e-015 0 -88.0574 -2.97285e-006 -9.39853e-006 31.2039 3.8147e-006 3.81469e-006 -158.067 -73.5782 -162.44 22.1039 0.255847 0.379024 -10.7625 6.07328 10.0774 12.0552 -7.10545e-015 7.62938e-006 1.50421e-007 3.32775e-007 -6.75324e-007 14.9382 -0.0102158 -1.55698e-011 16.718 -0.352798 4.35507 14.3577 0.505509 2.38671e-007 20.6399 -3.02981 -4.69846 3.76991 -2.3563 12.3444 -172.223 32.9206 -81.4827 3.76993 -2.35626 -12.3442 5.79242 29.7233 114.193 11.8395 10.8645 -1.07903e-007 -174.827 -3.77219 178.931 9.73751 3.21675 4.79738e-007 -2.85749 9.23424e-008 -3.52785e-008 2.55462 -1.1059 -0.153772 4.77834 -2.94618 -1.72235 6.93463 -0.751786 -4.77515e-007 -3.98995 -4.709 1.82525 13.0966 0 -1.19209e-007 0.13985 -3.33227 -6.63091 25.6158 0 -1.19209e-007 1.47529e-007 -1.35792e-008 -4.40031e-008 
-41.2633 62.0187 3.26942 93.6155 -81.9826 -177.564 -3.8147e-006 2.38419e-007 -7.10543e-015 -94.9642 -8.57111 -82.4341 -18.6385 -9.591 1.77636e-015 -36.0424 0.323986 174.527 20.9743 7.6294e-006 4.76837e-007 24.0284 0.394566 10.2776 20.3015 5.68434e-014 -1.77636e-015 6.36394 2.203 5.80759 21.6394 -4.26326e-014 3.55271e-015 5.25116 1.77526 -12.6234 21.663 -3.95781 2.81728 -0.309103 8.23638 -2.92348 -22.6909 0.937808 -19.1318 -67.6761 -9.61702 174.185 34.2647 1.80478e-012 0.00122643 -36.4174 7.47706e-006 5.26838e-006 20.4429 -7.62939e-006 0.000873566 61.3453 -2.92026e-007 1.36605e-006 16.5673 1.42109e-014 0 4.42582 5.43724 7.78525 9.18784 6.9484 -7.86145e-011 91.3394 1.06635e-005 -3.54743e-007 1.01907 -2.38418e-007 0 -4.8036e-008 7.66779e-009 -1.29877e-007 -20.9632 5.85206 14.6739 -120.361 12.8838 -170.292 34.2647 -1.77636e-014 -3.8147e-006 -97.933 -4.59048e-006 -2.21573e-005 20.4429 5.72205e-006 7.62939e-006 105.053 1.71749e-006 -7.08366e-006 16.5673 -1.90735e-006 -3.8147e-006 -31.386 -4.59026 -6.93233 9.18784 6.9484 9.99435e-010 89.9962 -1.29108e-006 1.43703e-006 1.01907 2.43139e-014 -7.10543e-015 179.96 -1.00575e-005 -1.46144e-005 39.3396 -0.0248222 -0.00166893 5.08546 3.82729 3.75679 34.2893 -15.5917 0.000302793 31.3321 -1.65855 1.78014 -20.9712 -1.18411 -6.88606 149.17 -39.4878 129.208 17.4439 7.6294e-006 3.55271e-014 43.8991 21.1757 -102.764 30.6251 -7.6294e-006 -1.06581e-014 -10.5097 -1.80472e-005 -3.43318e-006 31.204 -7.6294e-006 -5.72204e-006 -88.0204 74.2039 48.0807 22.1039 0.255849 -0.379044 -3.32362 9.95714 -44.5779 12.0552 3.81471e-006 5.96045e-007 179.96 -9.55123e-006 -1.24897e-005 -21.3565 -1.5428 5.48843 148.098 38.6311 -97.8401 17.4439 7.6294e-006 3.55271e-014 39.2076 -43.1966 84.9708 30.6251 7.10544e-015 1.42108e-014 -88.1611 -1.96816e-006 -9.44778e-006 31.2039 3.8147e-006 3.81469e-006 -157.986 -73.5823 -162.474 22.1039 0.255847 0.379024 -10.7625 6.07328 10.0774 12.0552 -3.55272e-015 7.62938e-006 1.50421e-007 3.32775e-007 -6.75324e-007 14.9382 -0.0102158 -2.10081e-011 16.7504 -0.372238 4.28237 14.3577 0.505509 2.38728e-007 20.8711 -2.987 -4.60224 3.76991 -2.3563 12.3444 -172.233 33.0126 -81.6585 3.76993 -2.35626 -12.3442 5.74644 29.8408 114.103 11.8395 10.8645 -1.00103e-007 -174.693 -3.80214 178.943 9.73751 3.21675 4.817e-007 -2.85749 9.3091e-008 -3.35363e-008 2.55462 -1.1059 -0.153772 4.77834 -2.94618 -1.72235 6.93463 -0.751786 -4.77974e-007 -3.84049 -4.76317 1.94863 13.0966 0 -1.19209e-007 0.083625 -3.3194 -6.41937 25.6158 0 -1.19209e-007 1.47529e-007 -1.35792e-008 -4.40031e-008 
